<svg xmlns="http://www.w3.org/2000/svg" width="883.011" height="1011.479" viewBox="0 0 883.011 1011.479">
  <defs>
    <style>
      .cls-1, .cls-14, .cls-9 {
        fill: #8e27f6;
      }

      .cls-1, .cls-6, .cls-7 {
        stroke: #3a3a3a;
      }

      .cls-2 {
        fill: #3a3a3a;
      }

      .cls-3 {
        fill: #e9e9e9;
      }

      .cls-4 {
        fill: rgba(255,255,255,0.69);
      }

      .cls-5, .cls-6 {
        fill: #f1f1f1;
      }

      .cls-10, .cls-7 {
        fill: #f7f5f9;
      }

      .cls-8 {
        fill: none;
        stroke: #fff;
        stroke-width: 3px;
        stroke-dasharray: 10;
      }

      .cls-9 {
        stroke: #000;
      }

      .cls-11, .cls-12 {
        font-size: 131px;
        font-family: SegoeUI-Bold, Segoe UI;
        font-weight: 700;
      }

      .cls-12, .cls-13, .cls-15 {
        fill: #fff;
      }

      .cls-15 {
        font-size: 29px;
        font-family: SegoeUI, Segoe UI;
      }
    </style>
  </defs>
  <g id="Group_10" data-name="Group 10" transform="translate(-501.033 -55.071)">
    <g id="Group_9" data-name="Group 9">
      <path id="Neck" class="cls-1" d="M0,40.369,8.661,0h6.247l5.706,40.369Z" transform="translate(652.828 777.78) rotate(21.997)"/>
      <path id="Head" class="cls-1" d="M29.856,42.313C23.423,43.971-1.241,31.286.049,12.9S26.925-1.432,31.9,7.845,36.288,40.655,29.856,42.313Z" transform="translate(661.99 757.396) rotate(21.997)"/>
      <path id="hair" class="cls-2" d="M6.522,20.529a6.442,6.442,0,0,1-1.343-2.5,25.243,25.243,0,0,1-.86-2.834c-.433-1.932-.437-4.154.941-5.654a6.483,6.483,0,0,1,4.294-1.86,7.891,7.891,0,0,1,3.045.386c.97.319,1.806.954,2.746,1.348a12.287,12.287,0,0,1,1.449-6.038A6.02,6.02,0,0,1,21.276.458a8.887,8.887,0,0,1,5.46,1.1c.425.23.845.47,1.248.743a3.5,3.5,0,0,0,1.083.6c.441.1.659-.151.946-.473a7.188,7.188,0,0,1,1.115-1A6.568,6.568,0,0,1,37.273.363a5.711,5.711,0,0,1,2.506,1.811c.572.75.979,1.939,1.768,2.462.335.222.571-.072.876-.289.458-.326.9-.686,1.358-1a6.22,6.22,0,0,1,2.11-.954c1.1-.256,2.632-.2,2.948,1.251a5.973,5.973,0,0,1-.011,1.673c-.053.752-.107,1.5-.173,2.255a16.28,16.28,0,0,1-.22,1.681,2.459,2.459,0,0,0-.109,1.154c.16.374.9.161,1.213.174a4.8,4.8,0,0,1,1.824.4A1.963,1.963,0,0,1,52.469,12a1.835,1.835,0,0,1,.031.96,2.865,2.865,0,0,0,.058.985c.837-.412,3.736-1.327,4.1.172a2.345,2.345,0,0,1-.366,1.484,12.866,12.866,0,0,1-1.351,2.057,18.391,18.391,0,0,1-3.6,3.491,2.359,2.359,0,0,1,.615,3.95,2.922,2.922,0,0,1-2.146.622,4.745,4.745,0,0,0-.887-.07,2.122,2.122,0,0,1-.4.135,11.963,11.963,0,0,1-3.291-.418,10.853,10.853,0,0,1-5.02-2.625,1.548,1.548,0,0,0-1.161-.533c-.432,0-.855.123-1.287.134a9.269,9.269,0,0,1-3.23-.9,12.187,12.187,0,0,1-1.058,4.3c-.478,1.05-1.475,1.2-2.455,1.3-3.134.3-6.279-.034-9.416-.03,3.037.687,6.176.97,9.186,1.777,1.361.365.322,1.282-.26,1.918a11.054,11.054,0,0,0-2.165,3.711c-1.486-1.937-4.112-3.213-6.439-2.618-2.571.657-4.381,4.134-2.737,6.633.954,1.451,2.678,2.011,4.112,2.634-1.119,1.163-1.389,2.881-2.063,4.328A3.1,3.1,0,0,1,19.7,47.159a1.8,1.8,0,0,0-.814.324c-.269.277-.333.587-.675.826a3.809,3.809,0,0,1-4.719-.363,3.08,3.08,0,0,1,.1-4.038c-1.458-.608-4.115-1.39-3.535-3.661-3.16-.21-10.832-5.335-6.591-9.079C1.14,29.851-1,26.636.5,23.8c1.151-2.182,3.829-3.158,6.025-3.273" transform="translate(652.804 738.863) rotate(21.997)"/>
      <path id="Seat_Stuff" data-name="Seat Stuff" class="cls-3" d="M23.725,0H90.08l8.695,106.5H0Z" transform="translate(540.945 891.91) rotate(21.997)"/>
      <path id="Seat_Stuff-2" data-name="Seat Stuff" class="cls-4" d="M23.725,0H44.133L56.348,106.5H0Z" transform="translate(540.945 891.91) rotate(21.997)"/>
      <path id="LegLower" class="cls-1" d="M1.168,109.658S-1.013,69.6.585,52.189c1.824-19.874,4.037-37.13,5.331-43.4C9-6.147,29.621.787,29.61,8.794c-.024,18.178-17.6,101.728-17.6,101.728Z" transform="translate(684.851 919.7) rotate(42)"/>
      <path id="LegLower-2" data-name="LegLower" class="cls-1" d="M1.541,118.08C.681,107.215-.916,69.6.682,52.189c1.824-19.874,4.037-37.13,5.331-43.4,3.086-14.941,23.7-8.007,23.694,0-.024,18.178-16.614,103.853-17.48,109.269S2.081,124.909,1.541,118.08Z" transform="translate(692.021 931.643) rotate(21.997)"/>
      <path id="LegLower-3" data-name="LegLower" class="cls-2" d="M0,96.061,4.4,8.873C7.564-6.2,34.377.794,34.366,8.873c-.025,18.342-11.043,81.705-11.051,87.17Z" transform="translate(682.601 917.674) rotate(42)"/>
      <path id="shoe" class="cls-5" d="M3.842,4.038A1.718,1.718,0,0,0,1.639,5.2L0,10.971a55.178,55.178,0,0,0,.774,6.78H49.218s1.888-6.243-2.18-6.741-6.759-.9-6.759-.9L17.762.075a.859.859,0,0,0-1.144.457L15.171,4.043S11.4,5.8,9.05,5.8Z" transform="translate(616.372 992.485) rotate(52.004)"/>
      <path id="shoe-2" data-name="shoe" class="cls-5" d="M3.842,4.038A1.718,1.718,0,0,0,1.639,5.2L0,10.971a55.178,55.178,0,0,0,.774,6.78H49.218s1.888-6.243-2.18-6.741-6.759-.9-6.759-.9L17.762.075a.859.859,0,0,0-1.144.457L15.171,4.043S11.4,5.8,9.05,5.8Z" transform="translate(649.451 1031.473) rotate(21.997)"/>
      <path id="Leg_and_Butt" data-name="Leg and Butt" class="cls-2" d="M146.676,31.293c0,22.819-10.837,76.045-10.843,81.07l-23.316.018s5.119-71.241,3.63-72.008-61.026,5.944-78.882,5.944C11.516,46.317.864,30.079,0,0H51.007c10.386,1.111,64.558,12.038,84.676,15.794C144.3,17.4,146.676,25.007,146.676,31.293Z" transform="translate(591.888 873.586) rotate(21.997)"/>
      <path id="Hand" class="cls-1" d="M1.975,0,33.646,12.342a73.749,73.749,0,0,1,19.927,2.409c1.415.732,3.353,2.463-1.462,3.364s-9.839,2.066-10.059,3.849,3.151,2.943,2.417,5.467q-.734,2.524-15.351-7.557L0,16.029Z" transform="translate(664.85 846.984) rotate(-28.015)"/>
      <path id="Hand-2" data-name="Hand" class="cls-1" d="M0,17.814,13.1,10.62S15.852.132,19.685.066c1.963-.913-1.456,7.921,2.266,7.155S34.755-.3,36.32,1.072c2.315,2.029.251,8.26-2.182,11.359C29.592,18.224,25.828,20.2,16.524,22.8,9.227,24.834.746,30.955.746,30.955Z" transform="translate(711.398 859.805) rotate(21.997)"/>
      <path id="Sleeve" class="cls-6" d="M4.728,5.466A73.253,73.253,0,0,0,45.308,0l3.728,13.765C37.322,22.207,21.782,28.207,9.392,25.886-.372,24.057-3.506,11.4,4.728,5.466Z" transform="translate(651.118 830.855) rotate(13)"/>
      <path id="Clothes_Jacket" data-name="Clothes Jacket" class="cls-6" d="M2.791,120.767c15.522-3.056,61.688,12.47,69.572-4.295C87.957,83.314,59.017,37.425,56.1,0H32.272C29.659,0,11.9,34.049,11.88,56.17,11.865,76.369-6.93,89.2,2.791,120.767Z" transform="translate(615.498 785.856) rotate(21.997)"/>
      <path id="Sleeve-2" data-name="Sleeve" class="cls-7" d="M30.235,0s-2.386,47.777,13.8,53.337,57.7-9.212,57.7-9.212,9.709,20.086,8.976,28.639C18.514,120.927-19.413,59.157,9.524,0Z" transform="translate(637.285 794.659) rotate(21.997)"/>
    </g>
    <path id="Path_1" data-name="Path 1" class="cls-8" d="M1241.92-3980.28s104.9-63.39,29.354-187.718-59.013-236.277,56.528-287.255,248.53,96.433,376.807,35.09,206.191-188.115,170.614-253.152-127.3-30.445-127.3-30.445" transform="translate(-501.353 4830.133)"/>
    <g id="Group_36" data-name="Group 36" transform="translate(491.885 587.652) rotate(-45)">
      <path id="Neck-2" data-name="Neck" class="cls-1" d="M0,47,10.084,0h7.273L24,47Z" transform="translate(767.876 101.9) rotate(30)"/>
      <path id="Head-2" data-name="Head" class="cls-9" d="M34.76,49.263c-7.489,1.931-36.2-12.837-34.7-34.238S31.349-1.667,37.143,9.134,42.25,47.333,34.76,49.263Z" transform="translate(781.742 79.883) rotate(30)"/>
      <path id="hair-2" data-name="hair" class="cls-2" d="M43.665,24.37a31.323,31.323,0,0,0-10.043-1.11,17.273,17.273,0,0,0,1.223-8.731C34.487,11.652,33.2,9.2,32.012,6.635a10.8,10.8,0,0,0-2.1-3.265,7.155,7.155,0,0,0-3.389-1.821,9.07,9.07,0,0,0-3.9,0c-.568.119-1.077.379-1.634.523s-.847-.209-1.261-.568A7.139,7.139,0,0,0,16.008.059a9.6,9.6,0,0,0-4.235.508,8.288,8.288,0,0,0-3.527,2.26A5.914,5.914,0,0,0,7.19,4.446c-.1.246-.119.392-.365.482-.227.083-.493.086-.727.165A9.145,9.145,0,0,0,.84,9.86a15.11,15.11,0,0,0-.827,6.208c.08,2.588,2.417,9.34,4.6,11.8A14.682,14.682,0,0,0,12.2,32.155a21.7,21.7,0,0,0-3.964,7.391,36.171,36.171,0,0,0-1.814,8.978,29.305,29.305,0,0,0,.451,8.852,9.593,9.593,0,0,0,4.289,6.246,20.487,20.487,0,0,0,3.3,1.551,21.735,21.735,0,0,0,3.4,1.09c2.211.457,4.758.378,6.461-1.381a12.13,12.13,0,0,0,1.736-2.206c.161-.279.258-.461.062-.733a5.245,5.245,0,0,0-.914-.831A8.618,8.618,0,0,1,22.164,55.4c-.272-2.342.357-5.366,2.635-6.388,2.811-1.262,5.907.187,8.406,1.537,1.062-3.748,3.242-7.122,6.661-8.841,3.782-1.9,8.121-2.124,12.008-3.756a7.164,7.164,0,0,0,2.79-1.774,3.608,3.608,0,0,0,.8-1.311,2.123,2.123,0,0,0-.556-1.647C53.247,30.624,46.945,25.37,43.665,24.37Z" transform="translate(781.384 48.5) rotate(30)"/>
      <path id="Leg" class="cls-1" d="M0,0,74.306,124.227,130.015,229.25h12L48.674,0Z" transform="translate(697.679 211.483) rotate(30)"/>
      <path id="shoe-3" data-name="shoe" class="cls-10" d="M4.474,5.033A2,2,0,0,0,1.908,6.381L0,13.106A64.241,64.241,0,0,0,.9,21H57.3s2.2-7.268-2.538-7.848-7.87-1.047-7.87-1.047L20.68.419a1,1,0,0,0-1.332.532L17.663,5.039s-4.385,2.046-7.127,2.046Z" transform="translate(693.469 460.777) rotate(30)"/>
      <path id="Pant" class="cls-2" d="M126.9,212.433l23.14-7s-15.207-45.462-37.278-100.059S65.356,0,65.356,0H0S28.167,64.232,59.722,116.725A891.987,891.987,0,0,0,126.9,212.433Z" transform="translate(686.979 205.306) rotate(30)"/>
      <path id="Leg-2" data-name="Leg" class="cls-1" d="M113.727,0c-7.013,43.654-20.54,99.427-21.816,101.149Q90.634,102.87,0,131.947l2.592,10.581q108.081-15.594,113.9-24.2C122.31,109.728,151.36,41.761,162.611,0Z" transform="translate(594.96 152.178) rotate(30)"/>
      <path id="Pant-2" data-name="Pant" class="cls-2" d="M0,122.8l4.565,17.041q80.838,7.09,99.063-10.246T145.169,0H82.849Q68.076,91.926,66.331,95.785T0,122.8Z" transform="translate(613.354 162.798) rotate(30)"/>
      <path id="shoe-4" data-name="shoe" class="cls-10" d="M4.474,5.033A2,2,0,0,0,1.908,6.381L0,13.106A64.241,64.241,0,0,0,.9,21H57.3s2.2-7.268-2.538-7.848-7.87-1.047-7.87-1.047L20.68.419a1,1,0,0,0-1.332.532L17.663,5.039s-4.385,2.046-7.127,2.046Z" transform="matrix(-0.342, 0.94, -0.94, -0.342, 540.343, 264.723)"/>
      <path id="Hand-3" data-name="Hand" class="cls-1" d="M2.3,0,39.174,14.37a85.864,85.864,0,0,1,23.2,2.8c1.648.852,3.9,2.867-1.7,3.916S49.216,23.5,48.96,25.572,52.629,29,51.774,31.937q-.855,2.938-17.872-8.8L0,18.662Z" transform="translate(770.522 183.636) rotate(-19.993)"/>
      <path id="Hand-4" data-name="Hand" class="cls-1" d="M0,20.74l15.247-8.376S18.455.154,22.918.077C25.2-.986,21.224,9.3,25.556,8.408s14.908-8.757,16.73-7.16c2.7,2.363.292,9.617-2.54,13.225-5.293,6.745-9.676,9.051-20.508,12.071-8.5,2.369-18.37,9.5-18.37,9.5Z" transform="translate(822.112 205.96) rotate(30)"/>
      <path id="Sleeve-3" data-name="Sleeve" class="cls-7" d="M5.5,6.364A85.286,85.286,0,0,0,52.75,0l4.34,16.026C43.453,25.855,25.36,32.84,10.935,30.139-.433,28.009-4.081,13.273,5.5,6.364Z" transform="matrix(0.934, 0.358, -0.358, 0.934, 757.303, 162.815)"/>
      <path id="Clothes_Jacket-2" data-name="Clothes Jacket" class="cls-10" d="M3.249,140.606c18.072-3.558,71.822,14.518,81-5C102.406,97,68.711,43.573,65.32,0H37.573C34.531,0,13.851,39.642,13.832,65.4,13.814,88.914-8.068,103.851,3.249,140.606Z" transform="translate(723.526 105.163) rotate(30)"/>
      <path id="Sleeve-4" data-name="Sleeve" class="cls-7" d="M35.2,0S32.424,55.625,51.273,62.1s67.182-10.725,67.182-10.725,11.3,23.385,10.451,33.344C21.556,140.792-22.6,68.875,11.089,0Z" transform="translate(747.219 118.841) rotate(30)"/>
    </g>
    <text id="share" class="cls-11" transform="translate(697.338 620.133)"><tspan x="0" y="0">share</tspan></text>
    <text id="XP" class="cls-12" transform="translate(1037.338 620.133)"><tspan x="0" y="0">XP</tspan></text>
    <circle id="Ellipse_2" data-name="Ellipse 2" class="cls-13" cx="9" cy="9" r="9" transform="translate(1235.338 117.133)"/>
    <circle id="Ellipse_1" data-name="Ellipse 1" class="cls-14" cx="9" cy="9" r="9" transform="translate(725.338 843.133)"/>
    <text id="share_your_experience" data-name="share your experience" class="cls-15" transform="translate(779.338 671.133)"><tspan x="0" y="0">SHARE YOUR EXPERIENCE</tspan></text>
  </g>
</svg>
