<?xml version="1.0" standalone="no"?><svg xmlns:xlink="http://www.w3.org/1999/xlink" xmlns="http://www.w3.org/2000/svg" viewBox="0 0 1000 500" preserveAspectRatio="xMaxYMax slice"><g transform="scale(1.0460251046025104)"><rect x="0" y="0" width="956" height="478" fill="#ffffff"/><rect x="0" y="0" width="119.5" height="119.5" fill="#ffffff"/><rect x="0" y="0" width="59.75" height="59.75" fill="#e9d5fd"/><polygon points="0,0 59.75,0 0,59.75" fill="#cb9bfb"/><rect x="59.75" y="0" width="59.75" height="59.75" fill="#fcf9ff"/><polygon points="119.5,0 119.5,59.75 59.75,59.75" fill="#9535f7"/><rect x="0" y="59.75" width="59.75" height="59.75" fill="#fff6e7"/><polygon points="0,59.75 59.75,59.75 59.75,119.5" fill="#fca71c"/><rect x="59.75" y="59.75" width="59.75" height="59.75" fill="#fdc363"/><polygon points="59.75,59.75 119.5,119.5 59.75,119.5" fill="#a655f8"/><rect x="119.5" y="0" width="119.5" height="119.5" fill="#a95bf8"/><rect x="119.5" y="0" width="119.5" height="119.5" fill="#fee2b4"/><rect x="239" y="0" width="119.5" height="119.5" fill="#ffffff"/><rect x="239" y="0" width="59.75" height="59.75" fill="#fdcf82"/><polygon points="239,0 298.75,0 239,59.75" fill="#ba7bf9"/><rect x="298.75" y="0" width="59.75" height="59.75" fill="#fee1b1"/><polygon points="298.75,0 358.5,0 358.5,59.75" fill="#cfa4fb"/><rect x="239" y="59.75" width="59.75" height="59.75" fill="#fdc66c"/><polygon points="298.75,59.75 298.75,119.5 239,119.5" fill="#ecdafd"/><rect x="298.75" y="59.75" width="59.75" height="59.75" fill="#fef0d7"/><polygon points="298.75,59.75 358.5,119.5 298.75,119.5" fill="#fff5e6"/><rect x="358.5" y="0" width="119.5" height="119.5" fill="#ffffff"/><rect x="358.5" y="0" width="59.75" height="59.75" fill="#a95af8"/><polygon points="358.5,0 418.25,0 358.5,59.75" fill="#b470f9"/><rect x="418.25" y="0" width="59.75" height="59.75" fill="#fdb745"/><polygon points="418.25,0 478,0 478,59.75" fill="#9330f6"/><rect x="358.5" y="59.75" width="59.75" height="59.75" fill="#fff6e6"/><polygon points="358.5,59.75 418.25,119.5 358.5,119.5" fill="#fed797"/><rect x="418.25" y="59.75" width="59.75" height="59.75" fill="#fca81e"/><polygon points="478,59.75 478,119.5 418.25,119.5" fill="#fee0af"/><rect x="478" y="0" width="119.5" height="119.5" fill="#fdce80"/><path d="M 478 119.5 A 119.5 119.5 0 0 1  597.5 0 L 478 119.5 A 119.5 119.5 0 0 0 597.5 0" fill="#fdc66b"/><rect x="597.5" y="0" width="119.5" height="119.5" fill="#ffffff"/><rect x="597.5" y="0" width="59.75" height="59.75" fill="#fee1b1"/><circle cx="627.375" cy="29.875" r="29.875" fill="#fdcc7a"/><rect x="657.25" y="0" width="59.75" height="59.75" fill="#fdbf59"/><rect x="657.25" y="0" width="59.75" height="59.75" fill="#fdb540"/><rect x="597.5" y="59.75" width="59.75" height="59.75" fill="#fed99b"/><circle cx="627.375" cy="89.625" r="29.875" fill="#feecce"/><rect x="657.25" y="59.75" width="59.75" height="59.75" fill="#fca920"/><rect x="657.25" y="59.75" width="59.75" height="59.75" fill="#c189fa"/><rect x="717" y="0" width="119.5" height="119.5" fill="#ffffff"/><rect x="717" y="0" width="59.75" height="59.75" fill="#ecdcfe"/><path d="M 717 59.75 A 59.75 59.75 0 0 1  776.75 0 L 776.75 59.75" fill="#fed491"/><rect x="776.75" y="0" width="59.75" height="59.75" fill="#993df7"/><path d="M 776.75 0 A 59.75 59.75 0 0 1 836.5 59.75 L 776.75 59.75" fill="#d2a8fb"/><rect x="717" y="59.75" width="59.75" height="59.75" fill="#fcaa22"/><path d="M 717 59.75 A 59.75 59.75 0 0 0 776.75 119.5 L 776.75 59.75" fill="#f9f3ff"/><rect x="776.75" y="59.75" width="59.75" height="59.75" fill="#fcab26"/><path d="M 776.75 119.5 A 59.75 59.75 0 0 0 836.5 59.75 L 776.75 59.75" fill="#fcab26"/><rect x="836.5" y="0" width="119.5" height="119.5" fill="#ffffff"/><rect x="836.5" y="0" width="59.75" height="59.75" fill="#fcb238"/><polygon points="836.5,0 896.25,0 836.5,59.75" fill="#fcac28"/><rect x="896.25" y="0" width="59.75" height="59.75" fill="#c997fb"/><polygon points="896.25,0 956,0 956,59.75" fill="#9a3ef7"/><rect x="836.5" y="59.75" width="59.75" height="59.75" fill="#fffbf6"/><polygon points="836.5,59.75 896.25,119.5 836.5,119.5" fill="#b169f9"/><rect x="896.25" y="59.75" width="59.75" height="59.75" fill="#e4ccfd"/><polygon points="956,59.75 956,119.5 896.25,119.5" fill="#fca515"/><rect x="0" y="119.5" width="119.5" height="119.5" fill="#ffffff"/><rect x="0" y="119.5" width="59.75" height="59.75" fill="#922ff6"/><path d="M 0 179.25 A 59.75 59.75 0 0 1  59.75 119.5 L 59.75 179.25" fill="#fca61a"/><rect x="59.75" y="119.5" width="59.75" height="59.75" fill="#fdcb79"/><path d="M 59.75 119.5 A 59.75 59.75 0 0 1 119.5 179.25 L 59.75 179.25" fill="#fee2b3"/><rect x="0" y="179.25" width="59.75" height="59.75" fill="#fed490"/><path d="M 0 179.25 A 59.75 59.75 0 0 0 59.75 239 L 59.75 179.25" fill="#e1c5fd"/><rect x="59.75" y="179.25" width="59.75" height="59.75" fill="#fdb540"/><path d="M 59.75 239 A 59.75 59.75 0 0 0 119.5 179.25 L 59.75 179.25" fill="#9e46f7"/><rect x="119.5" y="119.5" width="119.5" height="119.5" fill="#fca515"/><path d="M 119.5 119.5 A 119.5 119.5 0 0 1 239 239 L 119.5 239" fill="#e5cefd"/><rect x="239" y="119.5" width="119.5" height="119.5" fill="#ffffff"/><rect x="239" y="119.5" width="59.75" height="59.75" fill="#fdc467"/><path d="M 239 119.5 A 59.75 59.75 0 0 1 298.75 179.25 L 239 179.25" fill="#a049f7"/><rect x="298.75" y="119.5" width="59.75" height="59.75" fill="#fca515"/><path d="M 298.75 179.25 A 59.75 59.75 0 0 1  358.5 119.5 L 358.5 179.25" fill="#fffefc"/><rect x="239" y="179.25" width="59.75" height="59.75" fill="#fcb034"/><path d="M 239 239 A 59.75 59.75 0 0 0 298.75 179.25 L 239 179.25" fill="#c895fb"/><rect x="298.75" y="179.25" width="59.75" height="59.75" fill="#c998fb"/><path d="M 298.75 179.25 A 59.75 59.75 0 0 0 358.5 239 L 358.5 179.25" fill="#e9d4fd"/><rect x="358.5" y="119.5" width="119.5" height="119.5" fill="#b067f9"/><rect x="358.5" y="119.5" width="119.5" height="119.5" fill="#fed38d"/><rect x="478" y="119.5" width="119.5" height="119.5" fill="#f4eafe"/><polygon points="478,119.5 597.5,239 478,239" fill="#fdc568"/><rect x="597.5" y="119.5" width="119.5" height="119.5" fill="#a34ff8"/><polygon points="597.5,119.5 717,239 597.5,239" fill="#a350f8"/><rect x="717" y="119.5" width="119.5" height="119.5" fill="#c997fb"/><polygon points="717,119.5 836.5,119.5 717,239" fill="#e2c8fd"/><rect x="836.5" y="119.5" width="119.5" height="119.5" fill="#c38dfa"/><polygon points="836.5,119.5 956,119.5 956,239" fill="#fff3e1"/><rect x="0" y="239" width="119.5" height="119.5" fill="#ffffff"/><rect x="0" y="239" width="59.75" height="59.75" fill="#fdc76d"/><path d="M 0 239 A 59.75 59.75 0 0 0 59.75 298.75 L 59.75 239" fill="#c897fb"/><rect x="59.75" y="239" width="59.75" height="59.75" fill="#bc80fa"/><path d="M 59.75 298.75 A 59.75 59.75 0 0 0 119.5 239 L 59.75 239" fill="#d8b5fc"/><rect x="0" y="298.75" width="59.75" height="59.75" fill="#fca414"/><path d="M 0 358.5 A 59.75 59.75 0 0 1  59.75 298.75 L 59.75 358.5" fill="#fdc260"/><rect x="59.75" y="298.75" width="59.75" height="59.75" fill="#fff6e9"/><path d="M 59.75 298.75 A 59.75 59.75 0 0 1 119.5 358.5 L 59.75 358.5" fill="#fcb135"/><rect x="119.5" y="239" width="119.5" height="119.5" fill="#ffffff"/><rect x="119.5" y="239" width="59.75" height="59.75" fill="#e7d2fd"/><path d="M 119.5 298.75 A 59.75 59.75 0 0 1  179.25 239 L 179.25 298.75" fill="#c997fb"/><rect x="179.25" y="239" width="59.75" height="59.75" fill="#fed89b"/><path d="M 179.25 239 A 59.75 59.75 0 0 1 239 298.75 L 179.25 298.75" fill="#fdb745"/><rect x="119.5" y="298.75" width="59.75" height="59.75" fill="#fee1b1"/><path d="M 119.5 298.75 A 59.75 59.75 0 0 0 179.25 358.5 L 179.25 298.75" fill="#c087fa"/><rect x="179.25" y="298.75" width="59.75" height="59.75" fill="#fca920"/><path d="M 179.25 358.5 A 59.75 59.75 0 0 0 239 298.75 L 179.25 298.75" fill="#e9d4fd"/><rect x="239" y="239" width="119.5" height="119.5" fill="#ffffff"/><rect x="239" y="239" width="59.75" height="59.75" fill="#fedda7"/><polygon points="239,239 298.75,239 239,298.75" fill="#e0c5fd"/><rect x="298.75" y="239" width="59.75" height="59.75" fill="#fcaa22"/><polygon points="358.5,239 358.5,298.75 298.75,298.75" fill="#fcac28"/><rect x="239" y="298.75" width="59.75" height="59.75" fill="#d5affc"/><polygon points="239,298.75 298.75,298.75 298.75,358.5" fill="#fff7e9"/><rect x="298.75" y="298.75" width="59.75" height="59.75" fill="#fffbf6"/><polygon points="298.75,298.75 358.5,358.5 298.75,358.5" fill="#fca516"/><rect x="358.5" y="239" width="119.5" height="119.5" fill="#fff7eb"/><path d="M 358.5 239 A 119.5 119.5 0 0 1  478 358.5 L 358.5 239 A 119.5 119.5 0 0 0 478 358.5" fill="#e4ccfd"/><rect x="478" y="239" width="119.5" height="119.5" fill="#ffffff"/><rect x="478" y="239" width="59.75" height="59.75" fill="#fdb643"/><polygon points="478,239 537.75,239 478,298.75" fill="#d8b4fc"/><rect x="537.75" y="239" width="59.75" height="59.75" fill="#b46ff9"/><polygon points="597.5,239 597.5,298.75 537.75,298.75" fill="#fcad2b"/><rect x="478" y="298.75" width="59.75" height="59.75" fill="#fff7eb"/><polygon points="478,298.75 537.75,298.75 537.75,358.5" fill="#fff1db"/><rect x="537.75" y="298.75" width="59.75" height="59.75" fill="#ca99fb"/><polygon points="537.75,298.75 597.5,358.5 537.75,358.5" fill="#fdce7f"/><rect x="597.5" y="239" width="119.5" height="119.5" fill="#dec0fc"/><rect x="597.5" y="239" width="119.5" height="119.5" fill="#fffbf5"/><rect x="717" y="239" width="119.5" height="119.5" fill="#ffffff"/><rect x="717" y="239" width="59.75" height="59.75" fill="#c189fa"/><circle cx="746.875" cy="268.875" r="29.875" fill="#fed38c"/><rect x="776.75" y="239" width="59.75" height="59.75" fill="#eedffe"/><rect x="776.75" y="239" width="59.75" height="59.75" fill="#fff6e9"/><rect x="717" y="298.75" width="59.75" height="59.75" fill="#fed38c"/><circle cx="746.875" cy="328.625" r="29.875" fill="#dec0fc"/><rect x="776.75" y="298.75" width="59.75" height="59.75" fill="#af66f9"/><rect x="776.75" y="298.75" width="59.75" height="59.75" fill="#ddbefc"/><rect x="836.5" y="239" width="119.5" height="119.5" fill="#fdc974"/><path d="M 836.5 239 A 119.5 119.5 0 0 1  956 358.5 L 836.5 239 A 119.5 119.5 0 0 0 956 358.5" fill="#9b40f7"/><rect x="0" y="358.5" width="119.5" height="119.5" fill="#e8d2fd"/><rect x="0" y="358.5" width="119.5" height="119.5" fill="#fff3df"/><rect x="119.5" y="358.5" width="119.5" height="119.5" fill="#ffffff"/><rect x="119.5" y="358.5" width="59.75" height="59.75" fill="#fdd084"/><polygon points="119.5,358.5 179.25,358.5 119.5,418.25" fill="#d6b1fc"/><rect x="179.25" y="358.5" width="59.75" height="59.75" fill="#fcaa22"/><polygon points="179.25,358.5 239,358.5 239,418.25" fill="#f0e2fe"/><rect x="119.5" y="418.25" width="59.75" height="59.75" fill="#fee4b9"/><polygon points="179.25,418.25 179.25,478 119.5,478" fill="#b674f9"/><rect x="179.25" y="418.25" width="59.75" height="59.75" fill="#cc9dfb"/><polygon points="179.25,418.25 239,478 179.25,478" fill="#af66f9"/><rect x="239" y="358.5" width="119.5" height="119.5" fill="#ffffff"/><rect x="239" y="358.5" width="59.75" height="59.75" fill="#fee2b3"/><path d="M 239 418.25 A 59.75 59.75 0 0 0 298.75 358.5 L 239 358.5" fill="#e2c8fd"/><rect x="298.75" y="358.5" width="59.75" height="59.75" fill="#be82fa"/><path d="M 298.75 358.5 A 59.75 59.75 0 0 0 358.5 418.25 L 358.5 358.5" fill="#b069f9"/><rect x="239" y="418.25" width="59.75" height="59.75" fill="#fff0d8"/><path d="M 239 418.25 A 59.75 59.75 0 0 1 298.75 478 L 239 478" fill="#c28afa"/><rect x="298.75" y="418.25" width="59.75" height="59.75" fill="#902bf6"/><path d="M 298.75 478 A 59.75 59.75 0 0 1  358.5 418.25 L 358.5 478" fill="#fee3b6"/><rect x="358.5" y="358.5" width="119.5" height="119.5" fill="#ffffff"/><rect x="358.5" y="358.5" width="59.75" height="59.75" fill="#bb7dfa"/><polygon points="358.5,358.5 418.25,358.5 358.5,418.25" fill="#fdbe57"/><rect x="418.25" y="358.5" width="59.75" height="59.75" fill="#fca81e"/><polygon points="418.25,358.5 478,358.5 478,418.25" fill="#912df6"/><rect x="358.5" y="418.25" width="59.75" height="59.75" fill="#fdce7f"/><polygon points="358.5,418.25 418.25,478 358.5,478" fill="#fffbf5"/><rect x="418.25" y="418.25" width="59.75" height="59.75" fill="#ba7cfa"/><polygon points="478,418.25 478,478 418.25,478" fill="#f3e7fe"/><rect x="478" y="358.5" width="119.5" height="119.5" fill="#ffffff"/><rect x="478" y="358.5" width="59.75" height="59.75" fill="#d5b0fc"/><polygon points="478,358.5 537.75,358.5 478,418.25" fill="#9332f6"/><rect x="537.75" y="358.5" width="59.75" height="59.75" fill="#912cf6"/><polygon points="537.75,358.5 597.5,358.5 597.5,418.25" fill="#993cf7"/><rect x="478" y="418.25" width="59.75" height="59.75" fill="#d8b5fc"/><polygon points="537.75,418.25 537.75,478 478,478" fill="#c591fa"/><rect x="537.75" y="418.25" width="59.75" height="59.75" fill="#b068f9"/><polygon points="537.75,418.25 597.5,478 537.75,478" fill="#c188fa"/><rect x="597.5" y="358.5" width="119.5" height="119.5" fill="#ffffff"/><rect x="597.5" y="358.5" width="59.75" height="59.75" fill="#fdbd55"/><path d="M 597.5 358.5 A 59.75 59.75 0 0 1 657.25 418.25 L 597.5 418.25" fill="#be83fa"/><rect x="657.25" y="358.5" width="59.75" height="59.75" fill="#8f29f6"/><path d="M 657.25 418.25 A 59.75 59.75 0 0 1  717 358.5 L 717 418.25" fill="#a553f8"/><rect x="597.5" y="418.25" width="59.75" height="59.75" fill="#fdcd7f"/><path d="M 597.5 478 A 59.75 59.75 0 0 0 657.25 418.25 L 597.5 418.25" fill="#feeed2"/><rect x="657.25" y="418.25" width="59.75" height="59.75" fill="#a757f8"/><path d="M 657.25 418.25 A 59.75 59.75 0 0 0 717 478 L 717 418.25" fill="#fff9f0"/><rect x="717" y="358.5" width="119.5" height="119.5" fill="#fdcf82"/><rect x="717" y="358.5" width="119.5" height="119.5" fill="#d9b6fc"/><rect x="836.5" y="358.5" width="119.5" height="119.5" fill="#b26bf9"/><path d="M 836.5 358.5 A 119.5 119.5 0 0 1 956 478 L 836.5 478" fill="#dcbcfc"/></g></svg>